<?xml version="1.0" encoding="UTF-8" standalone="no"?>
<!-- Generator: Adobe Illustrator 16.0.0, SVG Export Plug-In . SVG Version: 6.00 Build 0)  -->

<svg
   xmlns:dc="http://purl.org/dc/elements/1.1/"
   xmlns:cc="http://creativecommons.org/ns#"
   xmlns:rdf="http://www.w3.org/1999/02/22-rdf-syntax-ns#"
   xmlns:svg="http://www.w3.org/2000/svg"
   xmlns="http://www.w3.org/2000/svg"
   xmlns:sodipodi="http://sodipodi.sourceforge.net/DTD/sodipodi-0.dtd"
   xmlns:inkscape="http://www.inkscape.org/namespaces/inkscape"
   version="1.0"
   id="Layer_2"
   x="0px"
   y="0px"
   width="346.41599"
   height="125.08554"
   viewBox="0 0 346.41599 125.08554"
   enable-background="new 0 0 478 269"
   xml:space="preserve"
   inkscape:version="0.91 r13725"
   sodipodi:docname="logo.svg"><metadata
     id="metadata71"><rdf:RDF><cc:Work
         rdf:about=""><dc:format>image/svg+xml</dc:format><dc:type
           rdf:resource="http://purl.org/dc/dcmitype/StillImage" /><dc:title></dc:title></cc:Work></rdf:RDF></metadata><defs
     id="defs69" /><sodipodi:namedview
     pagecolor="#ffffff"
     bordercolor="#666666"
     borderopacity="1"
     objecttolerance="10"
     gridtolerance="10"
     guidetolerance="10"
     inkscape:pageopacity="0"
     inkscape:pageshadow="2"
     inkscape:window-width="1870"
     inkscape:window-height="2043"
     id="namedview67"
     showgrid="false"
     fit-margin-top="0"
     fit-margin-left="0"
     fit-margin-right="0"
     fit-margin-bottom="0"
     inkscape:zoom="3.4811715"
     inkscape:cx="147.96744"
     inkscape:cy="53.912951"
     inkscape:window-x="1926"
     inkscape:window-y="73"
     inkscape:window-maximized="0"
     inkscape:current-layer="g3" /><g
     id="g3"
     transform="translate(-65.792,-71.957292)"><path
       d="m 143.375,112.568 c -3,1.708 -1.584,5.708 0.333,8.083 1.917,2.375 3,5.583 -1.291,8.708 0,0 -0.584,0.521 -0.417,1.396 0.167,0.875 1.25,0.337 1.25,0.337 0,0 4.5,-1.233 6.042,-7.941 1.791,-7.458 -0.75,-10.083 -0.75,-10.083 0,0 -2.167,-2.209 -5.167,-0.5 z"
       id="path5"
       inkscape:connector-curvature="0" /><path
       d="m 129.458,118.568 c -4.875,-0.813 -9,3.688 -9,3.688 0,0 -4.666,4.604 -6.916,11.854 -2.037,6.562 -2.691,17.968 6.416,19.083 8.688,1.063 16,-5.688 17.125,-17.812 1.125,-12.126 -2.75,-16.001 -7.625,-16.813 z m 1.25,19.874 c -2.438,9.625 -7.563,11.313 -10.063,10.438 -5.08,-1.778 -3.913,-10.517 -3.5,-12.375 1.375,-6.188 3.5,-9.938 3.5,-9.938 0,0 4,-7.125 6.875,-5.313 2.875,1.812 5.626,7.564 3.188,17.188 z"
       id="path7"
       inkscape:connector-curvature="0" /><path
       d="m 120.875,108.443 c 0,-4.083 -3.5,-6.25 -8.604,-4.083 -4.014,1.704 -7.368,9.741 -8.619,13.1 -10.229,3.462 -19.778,-1.453 -20.693,-12.183 -0.917,-10.75 2.834,-20.5 10.834,-27.667 8,-7.167 17.583,-3.167 18,6.583 0.416,9.75 -3.167,13.833 -5.834,16.333 -2.667,2.5 -5.25,1.583 -5.583,0.167 -0.333,-1.416 0.333,-3.667 -1.917,-3.167 -2.25,0.5 -1.583,3.5 -1.583,3.5 0,0 1.25,4.167 6.25,3.333 5,-0.834 11.416,-2.75 15.083,-13 3.667,-10.25 0.584,-20.333 -12.666,-19.333 -13.25,1 -19.168,5.167 -26.668,14.834 -7.5,9.667 -7.917,28.25 -1.833,33.417 5.068,4.305 16.633,6.502 25.82,-0.518 -1.382,4.235 -8.071,24.003 -14.237,29.351 -6.917,6 -17.459,3.874 -16.917,-9.667 0.875,-11.208 5.625,-13.375 7.792,-13 2.166,0.375 3.708,3 3.458,6 -0.25,3 -2.458,4.625 -5.416,4.667 -2.252,0.032 0.083,4.083 2.916,3.833 2.834,-0.25 6,-4.417 6.084,-8.5 0.083,-4.083 -3.523,-9.082 -10.584,-8.153 -7.061,0.929 -10.166,9.986 -10.166,14.653 0,4.667 0.75,11.417 10.583,15.917 9.833,4.5 17,-1.834 22.417,-8.917 5.417,-7.083 10.5,-26.125 10.5,-26.125 0.187,-0.525 0.386,-1.064 0.591,-1.605 8.673,-1.226 10.992,-6.037 10.992,-9.77 z m -10.122,7.562 c 1.979,-4.825 4.4,-9.488 5.914,-10.146 1.916,-0.833 4.208,2.583 1.458,6.06 -1.947,2.462 -5.475,3.619 -7.372,4.086 z"
       id="path9"
       inkscape:connector-curvature="0" /><path
       d="m 187.458,135.38 c 1.125,-12.125 -2.75,-16 -7.625,-16.813 -4.875,-0.813 -9,3.688 -9,3.688 0,0 -4.666,4.604 -6.916,11.854 -2.037,6.562 -2.691,17.968 6.416,19.083 8.688,1.063 16,-5.687 17.125,-17.812 z m -16.437,13.5 c -5.08,-1.778 -3.913,-10.517 -3.5,-12.375 1.375,-6.188 3.5,-9.938 3.5,-9.938 0,0 4,-7.125 6.875,-5.313 2.875,1.812 5.625,7.563 3.188,17.187 -2.438,9.626 -7.563,11.314 -10.063,10.439 z"
       id="path11"
       inkscape:connector-curvature="0" /><path
       d="m 412.208,156.692 0,-1.375 c -4.125,-0.625 -5.125,2.125 -5.125,2.125 0,0 -2.063,-0.75 -4.563,-0.813 -2.5,-0.063 -5.063,2.25 -5.063,2.25 0,0 -0.813,-0.125 -6.438,0.188 -5.625,0.313 -28.146,0.375 -28.146,0.375 0,0 12.875,-6.291 17.084,-11.041 1.021,-1.151 1.948,-2.215 2.782,-3.213 0.17,0.043 0.326,0.1 0.509,0.129 2.95,0.479 5.209,-2.25 5.209,-2.25 l -0.625,-0.875 c 0,0 -1.542,1.25 -3.917,1.667 -0.037,0.007 -0.07,0.004 -0.106,0.009 1.981,-2.512 3.241,-4.611 3.564,-6.634 0.5,-3.125 -1.625,-5.458 -4,-4.417 -2.375,1.041 -4.25,4.75 -4.25,7.25 0,1.639 0.519,3.167 1.696,4.169 -12.521,14.397 -34.808,16.334 -51.863,17.456 -19,1.25 -104.083,0.083 -109.416,0.083 -1.35,0 -3.512,-0.026 -5.986,-0.066 0.289,-6.579 0.611,-22.733 2.486,-28.432 2.083,-6.333 3.083,-8.167 5.583,-11.667 2.5,-3.5 2.75,-7.417 -1.083,-6.833 -3.833,0.584 -5.334,7.75 -5.334,7.75 0,0 -0.079,0.286 -0.222,0.788 -0.505,-1.607 -1.95,-5.166 -5.028,-5.871 -4,-0.917 -11.583,4.917 -15.833,10.083 -3.86,4.693 -6.25,11.332 -4,18.916 2.25,7.584 8.417,7.333 12.417,4.75 2.354,-1.52 4.757,-3.381 6.344,-4.659 -0.395,2.189 -0.756,4.333 -1.094,6.292 -0.409,2.373 -0.7,5.515 -0.956,8.762 -5.557,-0.11 -10.628,-0.228 -10.628,-0.228 -5.5,0.084 -15.333,1.916 -21.059,10.833 -5.725,8.917 0.059,20.75 8.893,23.667 8.833,2.917 17.75,0.333 23.666,-6.584 5.479,-6.404 5.456,-19.009 5.688,-24.548 17.216,0.165 92.148,0.789 115.438,-0.535 26.375,-1.5 64.063,-3.125 64.063,-3.125 0,0 -2.313,1.813 -3.25,4.375 -0.937,2.562 0.438,7.25 4.563,7.563 4.125,0.313 5.938,-3.063 6.125,-6.188 0.187,-3.125 -2.063,-5.813 -2.063,-5.813 2.188,-3.063 6.75,-1.875 6.75,-1.875 0,0 -0.313,0.625 -0.875,2.5 -0.562,1.875 -0.5,5.625 3.625,5.375 4.125,-0.25 4.5,-3.688 3.688,-5.563 -0.812,-1.875 -2.938,-3.313 -2.938,-3.313 0.563,-1.999 3.688,-1.437 3.688,-1.437 z m -31.041,-17.875 c 0.542,-2.125 2.125,-3.666 3.541,-3.375 1.416,0.291 0,3.375 0,3.375 -0.868,1.495 -1.83,2.876 -2.858,4.175 -0.792,-1.063 -1.02,-2.852 -0.683,-4.175 z m -175.709,36.709 c -1,4.75 -4.5,21.082 -18.75,18.916 -4.833,-0.5 -6.333,-4.333 -5.416,-10.166 0.916,-5.833 5.666,-12.834 9.25,-16.167 3.583,-3.333 6.75,-3.417 6.75,-3.417 l 9.306,0 c -0.325,4.318 -0.637,8.449 -1.14,10.834 z m 6.584,-42.666 c -0.94,2.819 -1.748,6.342 -2.458,9.954 -1.569,0.914 -4.654,2.625 -7.407,3.629 -3.885,1.417 -6.715,-3.079 -6.052,-8.416 0.833,-6.708 8.417,-16.333 11.833,-17.667 3.223,-1.258 4.665,2.082 5.938,6.66 -0.511,1.687 -1.145,3.711 -1.854,5.84 z m 186.249,34.124 c -0.208,3.375 -2.991,3.268 -3.833,3.208 -1.167,-0.083 -2.709,-2.208 -1.542,-4.625 1.167,-2.417 3.667,-3.375 3.667,-3.375 0,0 1.916,1.417 1.708,4.792 z m 11.636,-3.76 c 0.156,2.219 -2,2.5 -2.281,2.5 -0.281,0 -2.406,0.094 -2.25,-2.375 0.156,-2.469 2.25,-3.406 2.25,-3.406 0,0 2.125,1.062 2.281,3.281 z"
       id="path13"
       inkscape:connector-curvature="0" /><path
       d="m 243.708,145.109 c 1.417,7.75 6.083,11.166 9.583,9.666 3.5,-1.5 5.834,-7.917 6.584,-13.25 0.75,-5.333 2.75,-19.652 7.75,-21.492 5,-1.84 7.916,-1.424 7.666,-3.924 -0.25,-2.5 -2.333,-7.532 -8.333,-1.391 -6,6.141 -7.264,19.974 -9.007,26.807 -1.743,6.834 -2.91,10.251 -5.66,9.084 -2.75,-1.167 -3.834,-5.833 -1.75,-12.417 2.084,-6.583 6.583,-17.125 2.417,-20.125 0,0 -3.917,-1.844 -7.563,-1.313 -4.063,0.592 -4.688,4.354 -4.688,4.354 0,0 -0.584,3.25 0.917,3.333 1.5,0.083 1.666,-2.667 3.166,-3.75 1.5,-1.083 6.25,-1.333 4.667,3.25 -1.583,4.583 -7.166,13.418 -5.749,21.168 z"
       id="path15"
       inkscape:connector-curvature="0" /><path
       d="m 274.146,123.568 c -7.688,6.625 -8.625,13.313 -9.313,19.187 -0.688,5.875 3.625,10.875 9.688,9.438 6.063,-1.437 13.063,-10.708 13.063,-10.708 0,0 -1.208,6 1.083,10.25 1.797,3.333 6.709,1.791 8.625,0 1.053,-0.984 2.708,-2.432 3.987,-3.539 -0.067,0.456 -0.134,0.913 -0.195,1.372 -0.59,3.84 2.438,5.188 5.875,4.5 3.437,-0.688 1.688,-3.688 1.688,-3.688 0,0 -2.896,-5.063 -1.271,-13.937 1.625,-8.875 3.416,-11.75 6.125,-13.792 2.709,-2.042 4.291,-2.083 4.708,-0.292 0.417,1.791 -1.25,4.625 1.292,5.833 2.542,1.208 4.541,-0.417 4.666,-4.75 0.125,-4.333 -2,-5.792 -4.625,-6 -2.625,-0.208 -6.958,4.167 -7.875,3.708 -0.917,-0.459 0.959,-1.75 2.25,-3 1.291,-1.25 0,-2.792 -1.583,-2.792 -1.583,0 -2.625,2.333 -2.625,2.333 0,0 -5.439,12.914 -8.042,28.088 -1.421,1.256 -3.462,3.504 -6.041,4.911 -3.666,2 -4.459,-3.458 -4,-8.583 0.459,-5.125 4.125,-14.583 6,-19.208 1.875,-4.625 1.208,-6.208 -0.584,-6.125 -1.792,0.083 -2.625,2.458 -3.208,4.292 -0.583,1.834 -1.299,3.667 -1.299,3.667 0,0 0,-2.042 -2.139,-4.354 -2.222,-2.401 -8.563,-3.436 -16.25,3.189 z m 15.5,1.062 c 1.25,4.313 0.75,5.125 0.75,5.125 0,0 -4.938,11.625 -8.438,14.875 -3.5,3.25 -9.375,1.188 -9.813,-3.688 -0.438,-4.875 1.978,-12.125 6.438,-15.875 4.708,-3.958 9.813,-4.749 11.063,-0.437 z"
       id="path17"
       inkscape:connector-curvature="0" /><path
       d="m 328.583,155.192 c 2.938,-0.063 2.563,-4.188 1.813,-5.875 -0.75,-1.687 -1,-14.387 -0.5,-18.225 0.5,-3.838 3.813,-11.212 8.813,-9.212 5,2 0.75,22.812 -0.75,25.937 -1.5,3.125 -2.438,8.375 0.25,9.063 2.688,0.688 6.188,-3.333 6.688,-8.938 0.563,-6.313 1.5,-20.812 1.313,-23.875 0,0 0.938,-3.25 4.5,-2.75 3.562,0.5 4.188,2.125 3.25,7.75 -0.938,5.625 -6.438,20.437 -4.063,25.5 2.375,5.063 10.438,0.875 13.25,-2.875 5.646,-6.958 5.396,-13.875 3.813,-15.917 -1.583,-2.042 -5.042,-1.333 -5.459,1.75 -0.417,3.083 3.25,7.084 1.209,10.792 -2.041,3.708 -9.5,6.208 -10.292,1.458 -0.792,-4.75 4.5,-17.083 5.75,-23.166 1.25,-6.083 -0.917,-9.333 -4.875,-9.542 -3.958,-0.209 -7.615,4.375 -7.615,4.375 l -0.375,0 c 0,0 -1.563,-2.781 -4.563,-2.781 -3,0 -6.344,2.406 -6.344,2.406 l -0.406,-0.031 c 0.906,-1.563 0.424,-3.906 -1.344,-4.313 -2.313,-0.531 -3.188,3.406 -3.188,3.406 0,0 -5.688,24.937 -5.875,29.5 -0.187,4.563 2.063,5.626 5,5.563 z"
       id="path19"
       inkscape:connector-curvature="0" /><path
       d="m 150.021,89.568 c 2.531,0 5,-3 5.625,-6.406 0.625,-3.406 -0.563,-7.719 -1.719,-8.969 -1.156,-1.25 -2.906,0.375 -2,1.688 0.906,1.313 1.472,2.322 1.573,3.396 0.583,3.125 -1.375,8.292 -4.167,7.708 -2.791,-0.583 -1.75,-6.208 -1.208,-7.875 0.541,-1.667 0.458,-3.5 -0.583,-3.5 -1.042,0 -1.667,1.25 -1.667,1.25 0,0 -1.261,2.49 -0.948,6.552 0.313,4.062 2.562,6.156 5.094,6.156 z"
       id="path21"
       inkscape:connector-curvature="0" /><path
       d="m 157.771,86.193 c -0.354,2 0.271,2.708 1.021,2.458 0.75,-0.25 3.313,-1.521 5.447,-1.49 0.932,0.014 1.157,-0.156 1.115,-0.823 -0.042,-0.667 -1.354,-0.917 -2.938,-0.5 -1.584,0.417 -2.292,0.813 -2.292,0.354 0,-0.459 -0.167,-8.75 -0.292,-9.958 -0.125,-1.208 -0.083,-2.646 -1.458,-2.49 0,0 -1.208,0.281 -1.208,1.365 0,1.084 0.541,2.375 0.604,4.75 0.063,2.375 0.355,4.334 10e-4,6.334 z"
       id="path23"
       inkscape:connector-curvature="0" /><path
       d="m 178.625,87.985 c 0.625,0.667 1.541,1.541 2.5,-0.542 0.958,-2.083 3.792,-10.75 3.792,-10.75 0,0 0.25,-0.809 -0.375,-1.133 -0.625,-0.324 -1.042,-0.117 -1.459,1.258 -0.416,1.375 -1.958,6.917 -1.958,6.917 -0.417,1.083 -0.958,0.417 -0.958,0.417 l -3.959,-6.74 c 0,0 -1,-1.806 -2.063,-1.561 -0.878,0.203 -1.313,1.217 -0.938,1.884 0.375,0.667 4.793,9.583 5.418,10.25 z"
       id="path25"
       inkscape:connector-curvature="0" /><path
       d="m 195.958,89.984 c 0.875,0 1.626,-0.542 1.584,-1.625 -0.042,-1.083 0,-5.625 0,-5.625 l 0.25,0 c 0,0 2.835,3.737 4.571,5.125 l -0.001,0.001 c 0.008,0.007 0.018,0.012 0.025,0.019 0.048,0.038 0.092,0.069 0.139,0.103 1.217,0.975 3.184,0.809 4.65,0.18 0.357,-0.153 0.646,-0.349 0.879,-0.561 0.394,0.335 0.879,0.61 1.465,0.811 1.731,0.593 4.875,-0.031 6,-0.438 1.125,-0.407 0.844,-1.563 0,-1.406 -0.844,0.157 -3.813,0.719 -5.125,0.375 -1.312,-0.344 -1.344,-1.844 -1.344,-1.844 l 0,-1.997 c 1.158,-0.004 3.062,-0.009 3.656,0.004 0.875,0.019 1.604,-0.114 1.709,-0.496 0.104,-0.381 0.083,-1.001 -1.021,-1.001 -0.912,0 -3.477,0 -4.344,0 l 0,-0.948 0,-0.76 c 0,0 0.031,-1.521 1.386,-1.75 1.355,-0.229 2.854,-0.208 3.646,-0.125 0.792,0.083 1.313,-0.042 1.438,-0.417 0.125,-0.375 -0.219,-0.764 -1.75,-1.208 -1.896,-0.55 -4.469,-0.146 -4.469,-0.146 -2.094,0.375 -2.375,2.406 -2.375,2.406 0,0 0.063,4.469 0,6.219 -0.018,0.486 0.049,0.924 0.18,1.322 -0.433,0.282 -0.896,0.582 -1.336,0.654 -0.747,0.123 -1.464,-0.125 -1.778,-0.259 -0.105,-0.049 -0.21,-0.096 -0.325,-0.155 -1.292,-0.667 -3.875,-4.356 -3.875,-4.356 0,0 2.708,-0.645 3.375,-1.978 0.666,-1.333 -0.053,-3.875 -2.735,-4.208 -2.682,-0.333 -5.182,1.042 -5.182,2.667 l 0,10.181 c -0.001,10e-4 -0.168,1.236 0.707,1.236 z m 2.813,-12.463 c 1.313,-0.406 2.781,0.359 2.359,1.672 -0.422,1.313 -3.188,1.875 -3.563,1.672 -0.375,-0.203 -0.453,-1.672 -0.453,-1.672 -0.093,-0.802 0.344,-1.266 1.657,-1.672 z"
       id="path27"
       inkscape:connector-curvature="0" /><path
       d="m 184.792,90.144 c 0.833,0.075 1.666,-0.979 1.75,-2.252 0.053,-0.811 0.259,-1.857 0.54,-3.225 l 4.058,0 c -0.025,0.776 -0.088,1.561 -0.182,2.321 -0.375,3.04 1.5,3.902 2,2.505 0.5,-1.397 0.5,-5.628 -0.583,-10.146 -1.084,-4.518 -3.833,-4.437 -4.917,-2.424 -1.083,2.013 -3.166,9.448 -3.166,9.448 -0.499,1.729 -0.334,3.698 0.5,3.773 z m 2.833,-8.149 c 0.541,-2.774 1.583,-5.153 2.583,-3.305 0.568,1.05 0.847,2.61 0.918,4.313 l -3.702,0 c 0.065,-0.322 0.133,-0.657 0.201,-1.008 z"
       id="path29"
       inkscape:connector-curvature="0" /><path
       d="m 167.021,86.193 c -0.354,2 0.271,2.708 1.021,2.458 0.75,-0.25 3.313,-1.521 5.447,-1.49 0.932,0.014 1.157,-0.156 1.115,-0.823 -0.042,-0.667 -1.354,-0.917 -2.938,-0.5 -1.584,0.417 -2.292,0.813 -2.292,0.354 0,-0.459 -0.167,-8.75 -0.292,-9.958 -0.125,-1.208 -0.083,-2.646 -1.458,-2.49 0,0 -1.208,0.281 -1.208,1.365 0,1.084 0.541,2.375 0.604,4.75 0.063,2.375 0.355,4.334 10e-4,6.334 z"
       id="path31"
       inkscape:connector-curvature="0" /><path
       d="m 258.834,89.609 c 2.771,-0.5 3.375,-2.792 3.375,-2.792 0,0 0,-4.979 0,-5.896 0,-0.917 -0.079,-1.167 -1.021,-0.938 -1.013,0.246 -2.604,0.833 -3.458,1.208 -0.854,0.375 -1.354,1.188 -1.354,1.646 0,0.458 0.271,0.875 0.808,0.542 0.537,-0.333 1.776,-1.063 2.401,-1.271 0.625,-0.208 0.53,0.677 0.53,0.677 0,0 0,1.188 0,2.594 0,1.406 -1,2.594 -2.846,2.625 -1.313,0.022 -3.957,-2.159 -3.061,-5.972 0.896,-3.813 3.906,-5.528 3.906,-5.528 1.5,-0.844 1.803,-1.292 1.907,-1.813 0.104,-0.521 -2.438,-0.854 -4.854,1.75 -2.416,2.604 -3.333,6.521 -2.583,9.625 0.75,3.104 3.479,4.043 6.25,3.543 z"
       id="path33"
       inkscape:connector-curvature="0" /><path
       d="m 220.458,89.984 c 0.875,0 1.626,-0.542 1.584,-1.625 -0.042,-1.083 0,-5.625 0,-5.625 l 0.25,0 c 0,0 2.835,3.737 4.571,5.125 l -0.001,0.001 c 0.008,0.007 0.018,0.012 0.025,0.019 0.048,0.038 0.092,0.069 0.139,0.103 1.217,0.975 3.184,0.809 4.65,0.18 1.531,-0.656 1.906,-2.063 1.313,-2.438 -0.593,-0.375 -1.719,0.969 -2.719,1.133 -0.747,0.123 -1.464,-0.125 -1.778,-0.259 -0.105,-0.049 -0.21,-0.096 -0.325,-0.155 -1.292,-0.667 -3.875,-4.356 -3.875,-4.356 0,0 2.708,-0.645 3.375,-1.978 0.666,-1.333 -0.053,-3.875 -2.735,-4.208 -2.682,-0.333 -5.182,1.042 -5.182,2.667 l 0,10.181 c 0,0 -0.167,1.235 0.708,1.235 z m 2.813,-12.463 c 1.313,-0.406 2.781,0.359 2.359,1.672 -0.422,1.313 -3.188,1.875 -3.563,1.672 -0.375,-0.203 -0.453,-1.672 -0.453,-1.672 -0.093,-0.802 0.344,-1.266 1.657,-1.672 z"
       id="path35"
       inkscape:connector-curvature="0" /><path
       d="m 151.208,94.318 c -0.792,0.292 0.584,3.375 0.625,4.958 0.042,1.583 -0.5,3.042 -1.041,1.917 -0.542,-1.125 -3.125,-6.208 -4.292,-6.292 -1.166,-0.083 -2.208,2.083 -2.208,2.083 -0.667,1.667 -1.542,7.833 -1.542,10.333 0,2.5 1.708,2.25 2.708,1.875 1,-0.375 0.709,-2.042 0.625,-3.5 -0.083,-1.458 0.167,-3.208 0.334,-5.042 0.166,-1.833 1.791,-0.042 2.479,1.542 0.688,1.584 2.438,5.792 3.479,6.417 1.041,0.625 1.125,-1.625 1.125,-1.625 0,0 0,-7.958 0,-10.292 0,-2.334 -1.5,-2.666 -2.292,-2.374 z"
       id="path37"
       inkscape:connector-curvature="0" /><path
       d="m 272.419,108.362 c 0.875,0 1.625,-0.542 1.584,-1.625 -0.043,-1.083 0,-5.625 0,-5.625 l 0.25,0 c 0,0 2.834,3.737 4.571,5.125 l -0.001,0.001 c 0.008,0.007 0.018,0.012 0.025,0.019 0.047,0.038 0.092,0.069 0.139,0.103 1.217,0.975 3.184,0.809 4.65,0.18 0.424,-0.182 0.75,-0.422 1.001,-0.681 0.013,-0.011 0.024,-0.019 0.037,-0.031 1.634,-1.511 1.616,-3.572 0.949,-4.051 -0.667,-0.479 -1.166,0.333 -1.354,1.417 -0.174,1.006 -1.198,1.684 -1.346,1.777 -0.232,0.125 -0.467,0.228 -0.694,0.265 -0.748,0.123 -1.464,-0.125 -1.778,-0.259 -0.106,-0.049 -0.21,-0.096 -0.325,-0.155 -1.293,-0.667 -3.875,-4.356 -3.875,-4.356 0,0 2.708,-0.645 3.375,-1.978 0.666,-1.333 -0.053,-3.875 -2.735,-4.208 -2.682,-0.333 -5.183,1.042 -5.183,2.667 l 0,10.181 c 10e-4,-0.002 -0.165,1.234 0.71,1.234 z m 2.812,-12.463 c 1.313,-0.406 2.781,0.359 2.359,1.672 -0.422,1.313 -3.188,1.875 -3.563,1.672 -0.375,-0.203 -0.453,-1.672 -0.453,-1.672 -0.093,-0.802 0.345,-1.266 1.657,-1.672 z"
       id="path39"
       inkscape:connector-curvature="0" /><path
       d="m 244.395,89.653 c -0.245,1.174 -0.181,2.559 0.501,3.946 0.844,1.719 3.594,1.5 4.531,0.25 0.937,-1.25 0.438,-3.313 -1.094,-3.719 -0.875,-0.232 -1.7,-0.076 -2.254,0.101 -0.051,-0.218 -0.116,-0.416 -0.189,-0.583 3.021,-0.648 4.433,-5.065 4.318,-7.614 -0.125,-2.799 -0.125,-7.049 -4.083,-6.882 0,0 -2.876,-0.333 -4.5,4.042 -1.538,4.14 -0.46,9.733 2.77,10.459 z m 3.688,1.477 c 0.625,0.563 0.531,1.938 -0.688,2.063 -1.219,0.125 -1.5,-0.781 -1.281,-1.938 0.006,-0.031 0.004,-0.06 0.009,-0.09 0.606,-0.191 1.55,-0.404 1.96,-0.035 z m -1.844,-13.812 c 0,0 2,0 1.906,3.281 -0.094,3.281 -0.625,6.219 -2.219,7.063 -1.594,0.844 -2.875,-1.188 -2.875,-4.063 0,-2.875 0.657,-6.5 3.188,-6.281 z"
       id="path41"
       inkscape:connector-curvature="0" /><path
       d="m 163.463,108.446 c 0.5,-1.396 0.5,-5.628 -0.584,-10.146 -1.083,-4.518 -3.832,-4.437 -4.916,-2.424 -1.084,2.013 -3.166,9.448 -3.166,9.448 -0.5,1.728 -0.334,3.697 0.5,3.771 0.833,0.075 1.666,-0.979 1.75,-2.252 0.053,-0.811 0.258,-1.857 0.54,-3.225 l 4.058,0 c -0.025,0.776 -0.088,1.561 -0.182,2.321 -0.375,3.041 1.5,3.903 2,2.507 z m -5.534,-6.49 c 0.065,-0.322 0.132,-0.657 0.2,-1.008 0.542,-2.774 1.584,-5.153 2.584,-3.305 0.568,1.05 0.846,2.61 0.918,4.313 l -3.702,0 z"
       id="path43"
       inkscape:connector-curvature="0" /><path
       d="m 188.565,100.998 c 0,0 2.709,-0.645 3.375,-1.978 0.667,-1.333 -0.053,-3.875 -2.734,-4.208 -2.683,-0.333 -5.183,1.042 -5.183,2.667 l 0,10.181 c 0,0 -0.166,1.236 0.709,1.236 0.875,0 1.625,-0.542 1.583,-1.625 -0.042,-1.083 0,-5.625 0,-5.625 l 0.25,0 c 0,0 2.835,3.737 4.572,5.125 l -0.002,0.001 c 0.008,0.007 0.018,0.012 0.025,0.019 0.048,0.038 0.093,0.069 0.139,0.103 0,0 1.158,1.05 1.736,1.253 0.578,0.203 0.859,-0.766 0.484,-1.344 -0.375,-0.578 -1.741,-1.938 -1.741,-1.938 -1.351,-1.212 -3.213,-3.867 -3.213,-3.867 z m -2.223,-1.222 c -0.375,-0.203 -0.453,-1.672 -0.453,-1.672 -0.094,-0.802 0.344,-1.266 1.656,-1.672 1.312,-0.406 2.781,0.359 2.359,1.672 -0.422,1.313 -3.187,1.875 -3.562,1.672 z"
       id="path45"
       inkscape:connector-curvature="0" /><path
       d="m 178.286,108.896 c 1.934,0 3.82,-2.717 4.298,-5.801 0.477,-3.084 -0.431,-6.99 -1.313,-8.122 -0.884,-1.132 -2.221,0.34 -1.528,1.528 0.693,1.188 1.124,2.103 1.202,3.075 0.445,2.83 -1.051,7.508 -3.184,6.98 -2.133,-0.528 -1.338,-5.622 -0.923,-7.131 0.413,-1.509 0.35,-3.169 -0.446,-3.169 -0.796,0 -1.273,1.132 -1.273,1.132 0,0 -0.963,2.255 -0.725,5.934 0.239,3.678 1.958,5.574 3.892,5.574 z"
       id="path47"
       inkscape:connector-curvature="0" /><path
       d="m 169.688,108.896 c 0.917,0 1.125,-1.203 1.125,-1.432 0,-0.196 0,-7.895 0,-10.112 1.304,-0.11 2.519,-0.222 3.042,-0.263 1.063,-0.083 1.052,-0.771 0.755,-1.208 -0.297,-0.437 -1.297,-0.274 -2.172,-0.251 -0.875,0.023 -5.854,0.001 -5.854,0.001 0,0 -1.229,-0.063 -1.375,0.625 -0.146,0.688 0.209,1.417 1.938,1.354 0.432,-0.016 1,-0.051 1.625,-0.096 l 0,9.835 c -0.001,0 -0.001,1.547 0.916,1.547 z"
       id="path49"
       inkscape:connector-curvature="0" /><path
       d="m 196.063,97.814 c 0.432,-0.016 0.999,-0.051 1.625,-0.096 l 0,9.835 c 0,0 -10e-4,1.546 0.916,1.546 0.917,0 1.125,-1.203 1.125,-1.432 0,-0.196 0,-7.895 0,-10.112 1.305,-0.11 2.52,-0.222 3.042,-0.263 1.063,-0.083 1.052,-0.771 0.755,-1.208 -0.297,-0.437 -1.297,-0.274 -2.172,-0.251 -0.875,0.023 -5.854,0.001 -5.854,0.001 0,0 -1.229,-0.063 -1.375,0.625 -0.146,0.688 0.208,1.417 1.938,1.355 z"
       id="path51"
       inkscape:connector-curvature="0" /><path
       d="m 206.685,109.412 c 1.731,0.593 4.875,-0.031 6,-0.438 1.125,-0.407 0.844,-1.563 0,-1.406 -0.844,0.157 -3.813,0.719 -5.125,0.375 -1.312,-0.344 -1.344,-1.844 -1.344,-1.844 l 0,-1.997 c 1.158,-0.004 3.062,-0.009 3.656,0.004 0.875,0.019 1.604,-0.114 1.708,-0.496 0.104,-0.381 0.083,-1.001 -1.021,-1.001 -0.912,0 -3.477,0 -4.344,0 l 0,-0.948 0,-0.76 c 0,0 0.03,-1.521 1.385,-1.75 1.355,-0.229 2.854,-0.208 3.646,-0.125 0.791,0.083 1.313,-0.042 1.438,-0.417 0.125,-0.375 -0.219,-0.764 -1.75,-1.208 -1.896,-0.55 -4.469,-0.146 -4.469,-0.146 -2.094,0.375 -2.375,2.406 -2.375,2.406 0,0 0.063,4.469 0,6.219 -0.063,1.75 0.863,2.939 2.595,3.532 z"
       id="path53"
       inkscape:connector-curvature="0" /><path
       d="m 228.271,98.505 c 0.375,-1.938 2.313,-1.406 3.156,-1.531 0.843,-0.125 1.469,-1.594 0.156,-1.813 -1.313,-0.219 -3.313,0.406 -3.313,0.406 0,0 -2.594,0.781 -2.719,2.688 -0.1,1.518 0.656,2.406 1.969,3.031 1.313,0.625 3.875,0.156 4.844,1.156 0.969,1 0.594,4.281 -0.781,4.719 -1.375,0.438 -2.813,0 -3.156,-1.594 -0.343,-1.594 -2.875,-1.281 -2.875,0.281 0,1.562 2.063,2.938 4.156,3 2.093,0.062 4.375,-1.313 4.875,-3.906 0.5,-2.593 -0.469,-4.531 -2.469,-4.875 -2,-0.344 -4.218,0.376 -3.843,-1.562 z"
       id="path55"
       inkscape:connector-curvature="0" /><path
       d="m 213.896,96.537 0,12.094 c 0,0 0.094,1.438 1.406,1.469 1.312,0.031 1.844,-0.969 1.313,-2.188 -0.477,-1.094 -0.381,-4.095 -0.356,-4.698 0.842,-0.281 2.916,-0.796 3.479,0.354 0.75,1.531 0.346,4.932 1.752,5.532 1.406,0.6 3.125,-0.282 2.875,-1.625 -0.25,-1.343 -1.125,-0.469 -1.188,-1.344 -0.063,-0.875 -0.781,-2.807 -1.906,-3.941 -0.74,-0.747 -1.79,-1.004 -2.829,-0.953 1.01,-0.95 2.691,-2.541 3.267,-3.138 0.844,-0.875 1.094,-1.469 0.625,-1.906 -0.469,-0.437 -1.505,-0.125 -2.596,1.063 -0.812,0.883 -2.589,2.643 -3.449,3.489 0.039,-1.353 0.155,-2.526 0.53,-3.396 0.578,-1.344 -0.517,-2.188 -1.673,-2.234 -1.156,-0.046 -1.25,1.422 -1.25,1.422 z"
       id="path57"
       inkscape:connector-curvature="0" /><path
       d="m 246.693,95.86 c -0.88,0.085 -1.119,2.508 -1.119,2.508 0,0 0,6.333 0,7.438 0,1.105 0.008,2.763 1.326,2.721 1.317,-0.042 1.325,-2.295 1.325,-2.295 0,0 -0.038,-5.823 0,-7.863 0.038,-2.041 -0.651,-2.593 -1.532,-2.509 z"
       id="path59"
       inkscape:connector-curvature="0" /><path
       d="m 251.945,105.778 c -0.339,1.788 0.258,2.421 0.974,2.198 0.715,-0.223 3.16,-1.359 5.197,-1.332 0.889,0.012 1.104,-0.14 1.063,-0.735 -0.039,-0.596 -1.291,-0.82 -2.803,-0.447 -1.51,0.372 -2.185,0.726 -2.185,0.316 0,-0.409 -0.16,-7.822 -0.278,-8.901 -0.12,-1.08 -0.079,-2.366 -1.392,-2.226 0,0 -1.153,0.251 -1.153,1.22 0,0.969 0.517,2.123 0.577,4.246 0.06,2.123 0.338,3.874 0,5.661 z"
       id="path61"
       inkscape:connector-curvature="0" /><path
       d="m 236.072,97.61 c 0.432,-0.016 1,-0.051 1.625,-0.096 l 0,9.835 c 0,0 0,1.546 0.917,1.546 0.917,0 1.125,-1.203 1.125,-1.432 0,-0.196 0,-7.895 0,-10.112 1.304,-0.11 2.519,-0.222 3.041,-0.263 1.063,-0.083 1.053,-0.771 0.756,-1.208 -0.297,-0.437 -1.297,-0.274 -2.172,-0.251 -0.875,0.023 -5.854,10e-4 -5.854,10e-4 0,0 -1.229,-0.063 -1.375,0.625 -0.146,0.688 0.209,1.417 1.937,1.355 z"
       id="path63"
       inkscape:connector-curvature="0" /><path
       d="m 261.088,97.781 c 0,0 0.055,4.833 0,6.726 -0.056,1.893 0.757,3.178 2.281,3.819 1.521,0.641 4.287,-0.034 5.276,-0.473 0.99,-0.439 0.742,-1.69 0,-1.521 -0.741,0.169 -3.353,0.777 -4.507,0.406 -1.154,-0.371 -1.183,-1.994 -1.183,-1.994 l 0,-2.16 c 1.02,-0.004 2.692,-0.009 3.216,0.004 0.77,0.02 1.411,-0.123 1.503,-0.536 0.092,-0.413 0.072,-1.083 -0.897,-1.083 -0.803,0 -3.059,0 -3.821,0 l 0,-1.025 0,-0.822 c 0,0 0.027,-1.645 1.219,-1.893 1.192,-0.248 2.51,-0.226 3.207,-0.135 0.695,0.09 1.154,-0.045 1.264,-0.45 0.11,-0.406 -0.192,-0.827 -1.539,-1.307 -1.668,-0.595 -3.93,-0.158 -3.93,-0.158 -1.842,0.405 -2.089,2.602 -2.089,2.602 z"
       id="path65"
       inkscape:connector-curvature="0" /></g></svg>